<?xml version="1.0" standalone="no"?>
<!DOCTYPE svg PUBLIC "-//W3C//DTD SVG 20010904//EN"
 "http://www.w3.org/TR/2001/REC-SVG-20010904/DTD/svg10.dtd">
<svg version="1.0" xmlns="http://www.w3.org/2000/svg"
 width="707.000000pt" height="127.084844pt" viewBox="0 0 707.000000 127.084844"
 preserveAspectRatio="xMidYMid meet">
<metadata>
Created by potrace 1.12, written by Peter Selinger 2001-2015
</metadata>
<g transform="translate(-245.000000,161.084844) scale(0.100000,-0.100000)"
fill="#616161" stroke="none">
<path d="M4414 1596 c-3 -8 -4 -216 -2 -463 5 -479 8 -513 59 -602 53 -91 188
-164 308 -165 l65 -1 11 83 c6 45 8 86 5 91 -3 5 -23 12 -45 15 -60 10 -118
46 -137 86 -16 32 -18 77 -18 491 0 340 -3 458 -12 467 -18 18 -227 16 -234
-2z"/>
<path d="M6554 1566 c-48 -21 -74 -61 -74 -116 0 -146 212 -181 258 -42 37
113 -71 207 -184 158z"/>
<path d="M2840 1550 c-155 -15 -278 -87 -334 -194 -27 -51 -31 -69 -30 -135 0
-63 5 -85 27 -126 56 -106 139 -168 299 -224 176 -61 218 -95 218 -176 0 -47
-22 -84 -68 -115 -72 -48 -258 -38 -374 21 -32 16 -61 29 -66 29 -7 0 -62
-158 -62 -180 0 -24 145 -75 255 -91 235 -33 469 60 535 213 14 32 25 81 28
123 7 121 -47 220 -159 291 -43 27 -302 134 -325 134 -6 0 -26 16 -43 35 -56
64 -36 146 45 185 40 20 57 22 142 18 74 -4 113 -11 162 -31 35 -15 67 -23 71
-19 4 4 19 45 34 91 23 69 25 85 14 92 -27 17 -142 49 -198 55 -31 3 -67 6
-81 8 -14 1 -54 0 -90 -4z"/>
<path d="M6050 1406 l-105 -32 -3 -77 -3 -77 -49 0 c-79 0 -80 -1 -80 -96 l0
-84 65 0 65 0 0 -187 c0 -202 11 -306 36 -359 23 -49 74 -101 116 -118 52 -22
154 -28 223 -14 l60 13 3 90 3 91 -82 -1 c-78 0 -82 1 -103 28 -20 27 -21 42
-24 243 l-3 214 105 0 106 0 0 90 0 90 -105 0 -105 0 0 104 c0 58 -3 107 -7
109 -5 3 -55 -9 -113 -27z"/>
<path d="M3712 1230 c-172 -36 -311 -165 -346 -320 -52 -229 34 -414 237 -511
118 -56 283 -60 403 -9 177 75 270 203 282 388 13 204 -90 357 -290 434 -61
23 -216 33 -286 18z m208 -189 c75 -38 126 -155 118 -271 -7 -94 -56 -184
-117 -217 -82 -43 -190 -26 -258 39 -77 75 -87 286 -18 392 50 76 182 103 275
57z"/>
<path d="M3795 878 c-77 -42 -51 -148 36 -148 83 0 111 108 38 145 -33 18 -47
18 -74 3z"/>
<path d="M7225 1230 c-181 -40 -313 -161 -349 -320 -42 -181 4 -339 128 -440
77 -63 124 -86 217 -106 103 -22 233 -6 324 39 46 22 134 84 153 107 108 130
123 398 31 542 -38 59 -150 138 -233 164 -60 19 -214 27 -271 14z m208 -196
c149 -96 156 -354 14 -467 -73 -57 -192 -49 -267 19 -52 47 -81 119 -82 203
-1 80 14 131 54 186 64 91 189 117 281 59z"/>
<path d="M7305 878 c-77 -42 -51 -148 36 -148 83 0 111 108 38 145 -33 18 -47
18 -74 3z"/>
<path d="M8327 1229 c-50 -12 -127 -52 -151 -78 -27 -30 -46 -27 -46 8 0 59
-4 61 -110 61 l-98 0 5 -412 c2 -227 6 -419 8 -425 5 -14 178 -19 209 -7 14 5
16 38 16 265 0 238 2 263 20 298 38 75 120 119 198 105 54 -9 79 -29 104 -82
21 -43 23 -66 28 -277 5 -223 6 -232 32 -287 15 -32 32 -58 38 -58 48 0 213
36 217 47 3 8 -5 37 -18 66 -21 48 -23 71 -29 292 -5 238 -6 241 -34 303 -66
143 -229 219 -389 181z"/>
<path d="M9118 1221 c-117 -39 -190 -107 -208 -197 -29 -139 40 -225 243 -304
110 -43 140 -66 140 -110 0 -55 -39 -80 -123 -80 -67 0 -193 31 -205 50 -3 6
-14 10 -24 10 -13 0 -23 -19 -40 -75 -13 -41 -21 -80 -18 -88 13 -34 231 -82
326 -72 208 23 311 113 311 271 0 62 -34 163 -58 171 -10 4 -33 17 -53 30 -19
13 -82 41 -139 63 -58 21 -110 47 -117 57 -21 27 -15 71 12 98 33 34 102 33
202 0 42 -14 79 -22 84 -18 10 11 39 112 39 139 0 55 -256 94 -372 55z"/>
<path d="M4904 1194 c-4 -14 -4 -146 -1 -292 5 -299 14 -348 78 -435 105 -141
356 -152 491 -20 42 41 37 45 56 -52 9 -48 22 -51 132 -33 l75 13 -3 35 c-2
19 -6 208 -10 420 l-7 385 -109 3 c-81 2 -112 -1 -118 -10 -4 -7 -8 -129 -8
-271 0 -279 -1 -287 -57 -338 -42 -39 -66 -49 -123 -49 -67 0 -105 21 -132 73
-22 40 -23 56 -28 317 l-5 275 -112 3 -112 3 -7 -27z"/>
<path d="M6496 1204 c-9 -24 -7 -807 2 -822 6 -9 37 -12 118 -10 l109 3 3 423
2 422 -114 0 c-95 0 -115 -3 -120 -16z"/>
</g>
</svg>
