<?xml version="1.0" standalone="no"?>
<!DOCTYPE svg PUBLIC "-//W3C//DTD SVG 20010904//EN"
 "http://www.w3.org/TR/2001/REC-SVG-20010904/DTD/svg10.dtd">
<svg version="1.0" xmlns="http://www.w3.org/2000/svg"
 width="345.190050pt" height="391.000000pt" viewBox="0 0 345.190050 391.000000"
 preserveAspectRatio="xMidYMid meet">
<metadata>
Created by potrace 1.12, written by Peter Selinger 2001-2015
</metadata>
<g transform="translate(-108.683674,473.000000) scale(0.100000,-0.100000)"
fill="#49B8FD" stroke="none">
<path d="M2307 4678 c-26 -29 -64 -84 -84 -123 -20 -38 -56 -96 -79 -128 -39
-52 -70 -111 -103 -190 -6 -15 -14 -58 -17 -96 -6 -62 -5 -70 17 -89 29 -27
49 -28 83 -1 17 14 26 30 26 50 0 43 22 118 36 123 8 3 17 -10 24 -32 27 -84
134 -254 207 -327 40 -40 69 -44 101 -15 34 32 27 62 -26 127 -67 80 -103 136
-143 218 -29 62 -33 80 -34 155 0 47 3 97 8 113 8 30 37 37 37 9 0 -47 86
-231 162 -345 120 -179 263 -327 533 -551 66 -55 144 -120 174 -145 117 -98
142 -109 174 -73 28 31 22 78 -14 109 -18 16 -37 33 -43 38 -6 6 -49 42 -96
80 -416 341 -587 525 -704 762 -42 85 -86 230 -86 286 0 18 -9 47 -20 65 -16
26 -26 32 -52 32 -27 0 -42 -10 -81 -52z"/>
<path d="M1422 4527 c-33 -35 -71 -128 -86 -209 -7 -40 -25 -113 -40 -163 -20
-67 -27 -113 -28 -180 0 -108 12 -158 62 -250 21 -38 46 -95 55 -125 55 -172
170 -328 306 -414 32 -19 66 -50 78 -69 39 -63 145 -155 223 -192 52 -25 80
-45 93 -68 51 -86 146 -161 251 -198 76 -26 285 -38 324 -17 35 19 48 60 27
91 -15 23 -22 25 -139 30 -77 3 -140 11 -168 21 -53 20 -120 62 -120 76 0 6
32 10 73 10 98 0 141 21 145 71 5 59 -10 64 -177 64 -141 0 -173 5 -251 39
-42 18 -81 47 -75 57 4 5 37 9 74 9 54 0 72 4 89 20 26 24 28 57 7 87 -13 19
-26 21 -137 25 -152 5 -228 32 -315 111 -57 53 -129 150 -115 155 5 1 39 -9
75 -23 37 -14 78 -25 91 -25 45 0 70 55 46 100 -5 10 -35 28 -65 39 -149 56
-257 138 -300 227 -19 40 -32 141 -21 170 5 12 15 5 45 -33 21 -27 60 -68 87
-92 66 -59 222 -161 245 -161 28 0 59 36 59 69 0 32 -21 53 -106 106 -66 40
-176 146 -213 204 -35 54 -61 130 -61 178 0 54 19 52 60 -7 113 -162 346 -349
611 -489 146 -76 251 -122 474 -206 189 -71 263 -111 308 -165 77 -91 76 -179
-4 -347 -36 -75 -29 -106 28 -129 82 -33 102 -45 140 -87 64 -69 65 -110 7
-180 -29 -35 -30 -61 -4 -87 31 -31 74 -26 111 13 63 64 84 156 56 234 -20 52
-74 121 -123 156 -26 17 -53 37 -61 43 -14 9 -13 18 8 75 19 52 24 83 24 164
0 89 -3 106 -27 150 -59 112 -175 198 -348 258 -91 32 -209 76 -244 91 -20 9
-53 23 -73 32 -389 166 -684 390 -830 632 -17 29 -35 61 -38 73 -9 28 -45 59
-70 59 -12 0 -31 -10 -43 -23z"/>
<path d="M4065 4071 c-16 -10 -38 -28 -49 -39 l-19 -22 -29 25 c-43 37 -71 32
-128 -21 -55 -51 -85 -107 -96 -179 -6 -41 -15 -57 -51 -92 -81 -79 -138 -168
-233 -358 -92 -185 -96 -192 -183 -278 -95 -94 -100 -110 -54 -150 26 -22 55
-16 111 23 90 62 130 120 254 365 102 200 165 288 232 323 25 13 48 29 53 35
4 7 5 37 2 67 -3 35 0 66 8 85 l14 30 16 -32 c10 -18 17 -54 17 -81 0 -56 26
-92 65 -92 28 0 65 32 65 55 0 57 108 -41 130 -118 9 -29 47 -90 99 -159 89
-120 126 -187 116 -216 -3 -10 -23 -29 -46 -41 -45 -26 -49 -24 -136 45 -40
33 -45 34 -127 34 -95 0 -165 15 -251 54 -32 15 -65 24 -76 21 -31 -10 -49
-34 -49 -65 0 -33 23 -54 99 -89 39 -19 50 -29 45 -40 -21 -49 -34 -321 -28
-591 l6 -285 -37 -70 c-21 -38 -76 -121 -123 -183 -148 -199 -148 -199 -213
-467 -30 -125 -34 -155 -34 -280 1 -119 4 -151 24 -209 12 -38 29 -79 37 -90
40 -57 -8 -47 -69 15 l-50 51 2 218 c0 153 6 249 17 317 20 117 30 382 15 423
-5 16 -15 91 -22 167 -7 76 -17 144 -22 151 -14 18 -82 15 -98 -4 -15 -18 -16
-46 -9 -194 l4 -94 -74 -12 c-93 -15 -415 -18 -478 -4 -26 6 -69 16 -97 22
-66 15 -183 67 -190 86 -3 8 -1 20 3 26 9 11 18 45 41 148 16 69 14 150 -5
176 -10 15 -25 22 -49 22 -45 0 -61 -26 -70 -110 -15 -157 -64 -275 -168 -405
-75 -92 -289 -278 -378 -325 -24 -13 -66 -80 -83 -130 -34 -105 -51 -280 -40
-405 6 -67 11 -82 40 -117 41 -48 42 -58 9 -58 -19 0 -30 10 -46 42 -12 24
-35 62 -51 86 -26 37 -28 47 -20 75 6 18 15 88 21 157 33 359 51 419 146 490
111 82 117 130 43 325 -42 111 -78 259 -78 325 0 30 6 78 14 105 25 96 56 141
165 238 34 32 39 61 15 95 -20 29 -64 29 -112 -2 -28 -18 -57 -26 -122 -31
-187 -16 -326 -106 -395 -257 -36 -79 -45 -132 -51 -318 -7 -226 -3 -214 -68
-206 -44 5 -58 2 -77 -12 -39 -32 -26 -112 34 -200 95 -142 300 -140 442 3 51
50 95 127 95 165 0 31 27 23 39 -11 20 -57 14 -84 -24 -113 -125 -96 -160
-183 -185 -466 -6 -69 -18 -171 -27 -228 -8 -56 -12 -114 -9 -129 4 -14 24
-51 44 -82 43 -64 62 -104 62 -130 0 -10 8 -25 18 -34 16 -14 43 -17 170 -17
149 0 151 0 170 25 21 27 32 32 32 14 0 -33 28 -39 178 -39 157 0 168 3 185
52 8 22 -38 91 -115 174 -74 79 -80 95 -99 274 -9 89 -9 127 0 170 11 53 15
58 113 140 106 90 182 170 236 251 18 27 37 49 41 49 5 0 43 -9 86 -19 42 -11
135 -25 205 -32 109 -11 153 -10 301 4 95 9 176 14 181 11 13 -8 10 -120 -6
-214 -34 -198 -45 -505 -24 -632 10 -64 16 -75 55 -112 24 -23 51 -58 61 -77
l17 -34 150 -3 c103 -2 157 1 173 9 17 10 25 10 34 1 8 -8 59 -12 158 -12 165
0 180 6 180 69 0 37 -21 71 -95 152 -40 44 -54 67 -63 110 -26 123 -34 282
-30 604 l3 330 38 83 37 83 0 372 c0 320 9 499 25 515 2 2 36 4 75 4 59 0 75
-4 103 -24 46 -36 129 -78 151 -78 30 0 141 66 174 105 76 86 48 193 -106 395
-37 49 -73 108 -80 132 -7 24 -31 68 -53 96 -31 42 -39 61 -39 95 0 93 -49
209 -93 221 -30 8 -28 8 -62 -13z m-2416 -1414 c-29 -72 -43 -154 -63 -367
-11 -108 -27 -213 -38 -245 -42 -117 -196 -195 -269 -136 l-23 18 42 27 c73
46 81 74 91 335 8 182 10 201 34 251 34 72 90 125 162 155 80 32 89 26 64 -38z
m726 -667 c13 -21 -133 -184 -250 -278 -85 -69 -91 -75 -117 -132 -18 -39 -21
-64 -20 -180 0 -203 28 -335 84 -394 42 -44 47 -56 20 -56 -10 0 -25 12 -33
27 -15 30 -29 48 -75 102 -27 32 -32 46 -38 116 -3 44 -11 114 -17 155 -5 41
-12 109 -15 150 l-5 75 88 65 c110 81 257 221 314 300 44 61 53 68 64 50z
m1394 -670 c21 -210 34 -264 81 -330 25 -35 25 -40 0 -40 -13 0 -27 12 -38 31
-9 17 -27 44 -39 59 -17 20 -23 41 -23 75 0 190 -42 475 -85 583 -20 50 -16
66 43 147 l37 50 7 -230 c3 -127 11 -282 17 -345z m-164 -95 l5 -170 -21 55
c-17 43 -22 79 -23 165 0 61 3 128 8 150 l9 40 9 -35 c5 -19 11 -111 13 -205z
m-1798 -67 c-2 -13 -4 -3 -4 22 0 25 2 35 4 23 2 -13 2 -33 0 -45z"/>
</g>
</svg>
